<?xml version="1.0" encoding="UTF-8"?>
<svg id="Layer_1" data-name="Layer 1" xmlns="http://www.w3.org/2000/svg" viewBox="0 0 1937.05 2000.8">
  <defs>
    <style>
      .cls-1 {
        fill: #fff;
        fill-rule: evenodd;
      }
    </style>
  </defs>
  <path class="cls-1" d="M1491.04,980.39v586.16l-153.07,88.36V892.04l153.07,88.35ZM0,1485.8H153.07V892.04h165.67c70.08,0,127.25,57.14,127.25,127.21v547.3l153.04,88.36V88.37L445.99,0h318.76c70.05,0,127.23,57.16,127.23,127.28V2000.8C594.64,1829.14,297.28,1657.45,0,1485.8Zm1937.05,0h-153.06V892.04h-446.01V229.43c0-42.04,34.31-76.35,76.38-76.35h76.69v458.63c0,70.08,57.17,127.23,127.25,127.23h165.69V88.37L1937.05,0h-764.74c-70.12,0-127.27,57.16-127.27,127.28V2000.8c297.33-171.66,594.68-343.35,892.01-515Z"/>
</svg>